<?xml version="1.0" encoding="utf-8"?>
<!-- Generator: Adobe Illustrator 16.0.0, SVG Export Plug-In . SVG Version: 6.00 Build 0)  -->
<!DOCTYPE svg PUBLIC "-//W3C//DTD SVG 1.1//EN" "http://www.w3.org/Graphics/SVG/1.1/DTD/svg11.dtd">
<svg version="1.1" id="Layer_1" xmlns="http://www.w3.org/2000/svg" xmlns:xlink="http://www.w3.org/1999/xlink" x="0px" y="0px"
	 width="25.824px" height="25.824px" viewBox="0 0 25.824 25.824" enable-background="new 0 0 25.824 25.824" xml:space="preserve">
<g>
	<defs>
		<rect id="SVGID_1_" width="25.824" height="25.824"/>
	</defs>
	<clipPath id="SVGID_2_">
		<use xlink:href="#SVGID_1_"  overflow="visible"/>
	</clipPath>
	<path clip-path="url(#SVGID_2_)" fill="none" stroke="#0E8FCF" stroke-width="2.6" stroke-miterlimit="10" d="M6.322,22.461
		c0.043,0.03,0.084,0.063,0.128,0.092c0.599,0.402,1.238,0.75,1.909,1.038c0.041,0.018,0.084,0.032,0.125,0.049
		c0.291,0.12,0.587,0.23,0.888,0.326c0.067,0.022,0.135,0.041,0.203,0.063c0.283,0.085,0.571,0.159,0.864,0.223
		c0.075,0.017,0.149,0.033,0.226,0.049c0.3,0.06,0.605,0.104,0.913,0.14c0.065,0.008,0.13,0.019,0.196,0.025
		c0.373,0.037,0.752,0.06,1.136,0.06c0.385,0,0.765-0.022,1.14-0.06c0.063-0.007,0.128-0.017,0.191-0.024
		c0.31-0.035,0.615-0.081,0.916-0.141c0.076-0.016,0.151-0.032,0.228-0.049c0.291-0.063,0.579-0.138,0.86-0.223
		c0.069-0.021,0.139-0.04,0.205-0.063c0.302-0.095,0.597-0.204,0.886-0.322c0.042-0.019,0.087-0.033,0.129-0.053
		c0.671-0.287,1.309-0.634,1.906-1.036c0.047-0.03,0.091-0.064,0.136-0.097c3.024-2.095,5.01-5.583,5.018-9.542
		C24.512,6.5,19.324,1.313,12.91,1.3C6.5,1.313,1.312,6.5,1.3,12.915C1.307,16.876,3.294,20.367,6.322,22.461z"/>
	
		<line clip-path="url(#SVGID_2_)" fill="none" stroke="#0E8FCF" stroke-width="2.6" stroke-linecap="round" stroke-linejoin="round" stroke-miterlimit="10" x1="13.143" y1="19.733" x2="13.143" y2="11.316"/>
	<path clip-path="url(#SVGID_2_)" fill="#0E8FCF" d="M14.781,6.779c0,0.905-0.733,1.638-1.639,1.638
		c-0.904,0-1.639-0.733-1.639-1.638s0.734-1.638,1.639-1.638C14.048,5.141,14.781,5.875,14.781,6.779"/>
</g>
</svg>
