<?xml version="1.0" encoding="utf-8"?>
<!-- Generator: Adobe Illustrator 16.0.0, SVG Export Plug-In . SVG Version: 6.00 Build 0)  -->
<!DOCTYPE svg PUBLIC "-//W3C//DTD SVG 1.1//EN" "http://www.w3.org/Graphics/SVG/1.1/DTD/svg11.dtd">
<svg version="1.1" id="Layer_1" xmlns="http://www.w3.org/2000/svg" xmlns:xlink="http://www.w3.org/1999/xlink" x="0px" y="0px"
	 width="23.8px" height="28.112px" viewBox="0 0 23.8 28.112" enable-background="new 0 0 23.8 28.112" xml:space="preserve">
<g>
	<defs>
		<rect id="SVGID_1_" width="23.8" height="28.112"/>
	</defs>
	<clipPath id="SVGID_2_">
		<use xlink:href="#SVGID_1_"  overflow="visible"/>
	</clipPath>
	
		<path clip-path="url(#SVGID_2_)" fill="none" stroke="#0091D3" stroke-width="2.6" stroke-linecap="round" stroke-linejoin="round" stroke-miterlimit="10" d="
		M22.5,9.199v16.579c0,0.571-0.463,1.034-1.034,1.034H2.334c-0.571,0-1.034-0.463-1.034-1.034V2.337
		c0-0.571,0.463-1.034,1.034-1.034h12.448"/>
	
		<path clip-path="url(#SVGID_2_)" fill="none" stroke="#0091D3" stroke-width="2.6" stroke-linecap="round" stroke-linejoin="round" stroke-miterlimit="10" d="
		M14.885,1.3l-0.092,6.675c0,0.572,0.463,1.035,1.034,1.035L22.5,9.045L14.885,1.3z"/>
	<path clip-path="url(#SVGID_2_)" fill="#0091D3" d="M4.66,15.311h2.276c1.334,0,2.114,0.723,2.114,1.945
		c0,1.246-0.715,2.011-2.186,2.011h-0.78V21.1H4.66V15.311z M6.084,16.533v1.576h0.699c0.579,0,0.86-0.298,0.86-0.788
		c0-0.482-0.257-0.788-0.828-0.788H6.084z"/>
	<path clip-path="url(#SVGID_2_)" fill="#0091D3" d="M11.84,15.31c1.93,0,2.894,1.142,2.894,2.799c0,2.082-1.005,2.991-3.111,2.991
		H9.74v-5.79H11.84z M11.164,16.565v3.288h0.676c0.965,0,1.406-0.546,1.406-1.647c0-1.069-0.441-1.641-1.406-1.641H11.164z"/>
	<polygon clip-path="url(#SVGID_2_)" fill="#0091D3" points="15.474,15.31 19.357,15.31 19.357,16.565 16.896,16.565 16.896,17.754 
		19.06,17.754 19.06,18.913 16.896,18.913 16.896,21.099 15.474,21.099 	"/>
</g>
</svg>
