<?xml version="1.0" encoding="utf-8"?>
<!-- Generator: Adobe Illustrator 16.0.0, SVG Export Plug-In . SVG Version: 6.00 Build 0)  -->
<!DOCTYPE svg PUBLIC "-//W3C//DTD SVG 1.1//EN" "http://www.w3.org/Graphics/SVG/1.1/DTD/svg11.dtd">
<svg version="1.1" id="Layer_1" xmlns="http://www.w3.org/2000/svg" xmlns:xlink="http://www.w3.org/1999/xlink" x="0px" y="0px"
	 width="37.889px" height="28.112px" viewBox="0 0 37.889 28.112" enable-background="new 0 0 37.889 28.112" xml:space="preserve">
<g>
	<defs>
		<rect id="SVGID_1_" width="37.889" height="28.112"/>
	</defs>
	<clipPath id="SVGID_2_">
		<use xlink:href="#SVGID_1_"  overflow="visible"/>
	</clipPath>
	<path clip-path="url(#SVGID_2_)" fill="none" stroke="#0091D3" stroke-width="2.6" stroke-miterlimit="10" d="M8.729,14.15
		c0.022,0.016,0.043,0.032,0.065,0.048c0.307,0.205,0.633,0.384,0.977,0.53c0.021,0.01,0.042,0.017,0.064,0.025
		c0.148,0.062,0.3,0.117,0.454,0.167c0.034,0.011,0.069,0.021,0.103,0.031c0.145,0.044,0.293,0.082,0.442,0.113
		c0.038,0.01,0.077,0.018,0.116,0.025c0.153,0.03,0.309,0.054,0.467,0.072c0.033,0.004,0.066,0.009,0.1,0.013
		c0.191,0.019,0.385,0.03,0.581,0.03c0.196,0,0.391-0.012,0.582-0.03c0.033-0.004,0.066-0.009,0.099-0.013
		c0.158-0.019,0.314-0.042,0.468-0.072c0.039-0.008,0.077-0.016,0.116-0.025c0.149-0.031,0.296-0.069,0.44-0.113
		c0.036-0.011,0.071-0.021,0.105-0.032c0.154-0.049,0.305-0.104,0.453-0.165c0.021-0.01,0.044-0.017,0.066-0.027
		c0.343-0.146,0.669-0.324,0.975-0.529c0.023-0.016,0.046-0.033,0.069-0.05c1.547-1.071,2.562-2.854,2.566-4.879
		c-0.007-3.28-2.659-5.932-5.939-5.939C8.818,3.336,6.166,5.988,6.16,9.269C6.164,11.294,7.179,13.079,8.729,14.15z"/>
	
		<path clip-path="url(#SVGID_2_)" fill="none" stroke="#0091D3" stroke-width="2.6" stroke-linecap="round" stroke-linejoin="round" stroke-miterlimit="10" d="
		M1.3,26.812c1.297-4.747,5.64-8.237,10.798-8.237c5.159,0,9.501,3.49,10.799,8.237"/>
	
		<line clip-path="url(#SVGID_2_)" fill="none" stroke="#0091D3" stroke-width="2.6" stroke-linecap="round" stroke-linejoin="round" stroke-miterlimit="10" x1="22.423" y1="6.434" x2="36.588" y2="6.434"/>
	
		<line clip-path="url(#SVGID_2_)" fill="none" stroke="#0091D3" stroke-width="2.6" stroke-linecap="round" stroke-linejoin="round" stroke-miterlimit="10" x1="22.423" y1="1.3" x2="36.588" y2="1.3"/>
	
		<line clip-path="url(#SVGID_2_)" fill="none" stroke="#0091D3" stroke-width="2.6" stroke-linecap="round" stroke-linejoin="round" stroke-miterlimit="10" x1="22.423" y1="11.252" x2="32.375" y2="11.252"/>
</g>
</svg>
