<?xml version="1.0" encoding="utf-8"?>
<!-- Generator: Adobe Illustrator 16.0.0, SVG Export Plug-In . SVG Version: 6.00 Build 0)  -->
<!DOCTYPE svg PUBLIC "-//W3C//DTD SVG 1.1//EN" "http://www.w3.org/Graphics/SVG/1.1/DTD/svg11.dtd">
<svg version="1.1" id="Layer_1" xmlns="http://www.w3.org/2000/svg" xmlns:xlink="http://www.w3.org/1999/xlink" x="0px" y="0px"
	 width="30.759px" height="30.916px" viewBox="0 0 30.759 30.916" enable-background="new 0 0 30.759 30.916" xml:space="preserve">
<g>
	<defs>
		<rect id="SVGID_1_" y="0" width="30.758" height="30.915"/>
	</defs>
	<clipPath id="SVGID_2_">
		<use xlink:href="#SVGID_1_"  overflow="visible"/>
	</clipPath>
	
		<path clip-path="url(#SVGID_2_)" fill="none" stroke="#2094D1" stroke-width="3" stroke-linecap="round" stroke-linejoin="round" stroke-miterlimit="10" d="
		M21.928,12.554c-2.086,0.169-3.903-1.959-3.789-3.789c0.146-2.358,3.614-5.761,3.614-5.761L20.104,1.5
		c-1.883,0.164-3.708,0.96-5.145,2.36L14.957,3.86c-0.011,0.011-0.022,0.023-0.034,0.034c-0.008,0.009-0.017,0.015-0.025,0.023
		l0.002,0.001c-0.099,0.1-0.197,0.199-0.292,0.304c-2.168,2.383-2.689,5.659-1.678,8.494L3.895,21.75l-1.303,1.303
		c-1.456,1.456-1.456,3.815,0,5.271c1.456,1.456,3.815,1.456,5.272,0l2.573-2.573c0.006-0.008,0.011-0.016,0.017-0.023l5.634-5.632
		l2.189-2.186c3.038,0.965,6.504,0.164,8.792-2.35c0.429-0.47,0.79-0.974,1.092-1.502l0.056-0.1c0.479-0.87,0.792-1.805,0.938-2.758
		l0.003,0.002c0.002-0.016,0.002-0.031,0.006-0.046c0.002-0.012,0.005-0.023,0.007-0.034l-0.002-0.002
		c0.06-0.426,0.093-0.857,0.09-1.286L27.611,8.33C27.611,8.33,25.503,12.265,21.928,12.554z"/>
</g>
</svg>
