<?xml version="1.0" encoding="utf-8"?>
<!-- Generator: Adobe Illustrator 16.0.0, SVG Export Plug-In . SVG Version: 6.00 Build 0)  -->
<!DOCTYPE svg PUBLIC "-//W3C//DTD SVG 1.1//EN" "http://www.w3.org/Graphics/SVG/1.1/DTD/svg11.dtd">
<svg version="1.1" id="Layer_1" xmlns="http://www.w3.org/2000/svg" xmlns:xlink="http://www.w3.org/1999/xlink" x="0px" y="0px"
	 width="28.633px" height="30.871px" viewBox="0 0 28.633 30.871" enable-background="new 0 0 28.633 30.871" xml:space="preserve">
<g>
	<defs>
		<rect id="SVGID_1_" width="28.633" height="30.871"/>
	</defs>
	<clipPath id="SVGID_2_">
		<use xlink:href="#SVGID_1_"  overflow="visible"/>
	</clipPath>
	<path clip-path="url(#SVGID_2_)" fill="none" stroke="#FFFFFF" stroke-width="3" stroke-miterlimit="10" d="M10.317,14.343
		c0.026,0.018,0.051,0.038,0.077,0.056c0.364,0.244,0.752,0.455,1.159,0.63c0.025,0.01,0.051,0.019,0.076,0.03
		c0.177,0.073,0.357,0.139,0.539,0.198c0.041,0.013,0.082,0.024,0.123,0.037c0.172,0.052,0.347,0.097,0.525,0.135
		c0.045,0.01,0.09,0.021,0.137,0.03c0.182,0.036,0.367,0.063,0.554,0.085c0.04,0.005,0.079,0.011,0.119,0.015
		c0.227,0.023,0.458,0.036,0.69,0.036c0.233,0,0.463-0.013,0.691-0.036c0.039-0.004,0.077-0.01,0.116-0.015
		c0.188-0.021,0.373-0.049,0.556-0.085c0.046-0.009,0.092-0.02,0.138-0.03c0.178-0.038,0.352-0.083,0.523-0.135
		c0.042-0.012,0.083-0.024,0.124-0.038c0.183-0.058,0.362-0.124,0.537-0.196c0.025-0.011,0.053-0.021,0.079-0.032
		c0.406-0.174,0.794-0.385,1.156-0.629c0.028-0.018,0.056-0.039,0.082-0.058c1.836-1.272,3.041-3.389,3.045-5.792
		c-0.008-3.894-3.154-7.042-7.048-7.049c-3.892,0.007-7.041,3.155-7.047,7.049C7.272,10.953,8.479,13.072,10.317,14.343z"/>
	
		<path clip-path="url(#SVGID_2_)" fill="none" stroke="#FFFFFF" stroke-width="3" stroke-linecap="round" stroke-linejoin="round" stroke-miterlimit="10" d="
		M1.5,29.371c1.539-5.635,6.694-9.776,12.817-9.776c6.122,0,11.276,4.142,12.815,9.776"/>
</g>
</svg>
